<?xml version="1.0" standalone="no"?><!DOCTYPE svg PUBLIC "-//W3C//DTD SVG 1.1//EN" "http://www.w3.org/Graphics/SVG/1.1/DTD/svg11.dtd">
<svg t="1577409030146" class="icon" viewBox="0 0 1024 1024" version="1.1" 
  xmlns="http://www.w3.org/2000/svg" p-id="3049" 
  xmlns:xlink="http://www.w3.org/1999/xlink" width="200" height="200" fill="#424242">
  <defs>
    <style type="text/css"></style>
  </defs>
  <path d="M708.64 284.15H278.41l96-96a32 32 0 0 0-45.25-45.25L178.7 293.35a37.19 37.19 0 0 0 0 52.6l150.48 150.48a32 32 0 1 0 45.25-45.25l-103-103h437.21c49.58 0 96.38 19.49 131.77 54.88s54.88 82.19 54.88 131.77-19.49 96.38-54.88 131.77-82.19 54.88-131.77 54.88H351.29a32 32 0 0 0-32 32 32 32 0 0 0 32 32h357.35c137.86 0 250.66-112.79 250.66-250.66-0.01-137.87-112.8-250.67-250.66-250.67z" p-id="3050"></path>
</svg>